# xmcd
# 
# Track frame offsets:
#     150
#     13520
#     25470
#     39817
#     53902
#     64302
#     75492
#     86567
#     103750
#     113987
#     125732
#     139930
#     152775
#     165045
#     178115
#     194480
#     204135
#     217017
# 
# Disc length: 3081
# 
# Revision: 11
# Processed by: cddbd v1.5.2PL0 Copyright (c) Steve Scherf et al.
# Submitted via: fre:ac v1.0.17
# 
DISCID=f40c0712
DTITLE=Various Artist - Dressed In Black: Tribute To Johnny Cash
DYEAR=2002
DGENRE=Country
TTITLE0=Hank Williams III - Wreck Of The Old '97
TTITLE1=Robbie Fulks - Cry, Cry, Cry
TTITLE2=Rodney Crowell - Ballad Of A Teenage Queen
TTITLE3=Raul Malo - I Guess Things Happen That Way
TTITLE4=Chuck Mead - There You Go
TTITLE5=Rev. Horton Heat - Get Rhythm
TTITLE6=Bruce Robison and Kelly Willis - Pack Up Your Sorrows
TTITLE7=Billy Burnette - Ring Of Fire
TTITLE8=Redd Volkaert - Luther Played The Boogie
TTITLE9=Rosie Flores - Big River
TTITLE10=James Intveld - Folsom Prison Blues
TTITLE11=Earl Poole Ball - I Still Miss Someone
TTITLE12=Damon Bramblett - I'm Gonna Sit On The Porch And Pick On My Old Guitar
TTITLE13=Dale Watson - I Walk The Line
TTITLE14=Kenny Vaughan - Train Of Love
TTITLE15=Eddie Angel - Straight A's In Love
TTITLE16=Mandy Barnett and Chuck Mead - Jackson
TTITLE17=Chris Knight - Flesh and Blood
EXTD=(c)2002 Dualtone Music Group, Inc.\nupc 803020112728
EXTT0=
EXTT1=
EXTT2=
EXTT3=
EXTT4=
EXTT5=
EXTT6=
EXTT7=
EXTT8=
EXTT9=
EXTT10=
EXTT11=
EXTT12=
EXTT13=
EXTT14=
EXTT15=
EXTT16=
EXTT17=
PLAYORDER=
